<?xml version="1.0" encoding="iso-8859-1"?>
<!-- Uploaded to: SVG Repo, www.svgrepo.com, Generator: SVG Repo Mixer Tools -->
<svg height="800px" width="800px" version="1.1" id="Layer_1" xmlns="http://www.w3.org/2000/svg" xmlns:xlink="http://www.w3.org/1999/xlink" 
	 viewBox="0 0 512 512" xml:space="preserve">
<path style="fill:#FEDEA1;" d="M78.925,224.538l-1.545-13.005c-0.307-2.193-0.58-4.378-0.58-6.733
	c0-65.34,30.763-125.636,82.313-161.28l27.622-15.761c17.391-7.834,36.036-12.621,55.407-14.217h27.699
	c19.379,1.604,38.025,6.383,55.407,14.217l27.622,15.753C404.429,79.164,435.2,139.46,435.2,204.8c0,2.355-0.273,4.54-0.58,6.724
	l-1.545,13.005H78.925V224.538z"/>
<path style="fill:#BFA779;" d="M269.047,294.665c-7.569,0-12.186-0.239-12.561-0.264l-1.271,0.017
	c-0.051,0.009-4.685,0.247-12.271,0.247c-35.294,0-120.883-4.855-153.353-49.843l-14.635-20.292h362.069L422.4,244.821
	C389.931,289.809,304.341,294.665,269.047,294.665z"/>
<path style="fill:#FFE7E5;" d="M256,499.2c-88.934,0-161.28-91.878-161.28-204.8c0-4.318,0.341-8.516,0.691-12.715l1.835-24.653
	l17.783,10.547c41.225,24.439,103.194,27.085,127.923,27.085c7.595,0,12.177-0.239,12.356-0.247l0.683-0.034l0.7,0.034
	c0.179,0.009,4.762,0.247,12.356,0.247c24.704,0,86.596-2.637,127.821-27.017l17.809-10.53l1.476,20.642
	c0.119,1.613,0.265,3.217,0.418,4.813c0.367,3.908,0.717,7.799,0.717,11.827C417.28,407.322,344.934,499.2,256,499.2z"/>
<path style="fill:#573A32;" d="M256,0C149.965,0,64,91.691,64,204.8c0,22.827,7.953,40.508,20.437,54.357
	c-1.519,11.486-2.517,23.211-2.517,35.243C81.92,414.575,159.863,512,256,512c96.145,0,174.08-97.425,174.08-217.6
	c0-12.023-1.05-23.697-2.577-35.174C440.021,245.367,448,227.669,448,204.8C448,91.691,362.035,0,256,0z M256,486.4
	c-81.869,0-148.48-86.135-148.48-192c0-5.385,0.597-10.556,0.981-15.804c43.588,25.847,107.281,28.877,134.451,28.877
	c8.175,0,13.047-0.273,13.047-0.273s4.864,0.273,13.047,0.273c27.145,0,90.752-3.021,134.332-28.8
	c0.375,5.239,1.101,10.359,1.101,15.727C404.48,400.265,337.869,486.4,256,486.4z M269.047,281.873
	c-7.014,0-11.298-0.213-11.648-0.23l-1.425-0.077l-1.374,0.077c-0.341,0.017-4.634,0.23-11.648,0.23
	c-29.491,0-113.57-3.797-142.967-44.535h312.038C382.626,278.067,298.539,281.873,269.047,281.873z M421.675,211.729H90.325
	c-0.265-2.295-0.725-4.48-0.725-6.929c0-63.275,30.686-118.861,76.791-150.758V128c0,7.074,5.726,12.8,12.8,12.8
	s12.8-5.726,12.8-12.8V39.424c15.957-7.185,33.195-11.639,51.2-13.124v127.3c0,7.074,5.726,12.8,12.8,12.8
	c7.074,0,12.8-5.726,12.8-12.8V26.3c18.005,1.485,35.243,5.939,51.2,13.124V128c0,7.074,5.726,12.8,12.8,12.8
	c7.074,0,12.8-5.726,12.8-12.8V54.033C391.706,85.931,422.4,141.525,422.4,204.8C422.4,207.249,421.939,209.434,421.675,211.729z"/>
</svg>